<svg xmlns="http://www.w3.org/2000/svg" viewBox="-8.00 10.00 377.89 80.00" role="img" aria-label="Libella">
  <line x1="38" y1="14" x2="38" y2="78" fill="none" stroke="#1C1815" stroke-width="6" stroke-linecap="round" stroke-linejoin="round"></line>
  <line x1="16" y1="86" x2="60" y2="86" fill="none" stroke="#1C1815" stroke-width="6" stroke-linecap="round" stroke-linejoin="round"></line>
  <line x1="8" y1="13" x2="68" y2="17" fill="none" stroke="#1C1815" stroke-width="6" stroke-linecap="round" stroke-linejoin="round"></line>
  <path d="M 1 13 Q 8 27 15 13" fill="none" stroke="#1C1815" stroke-width="6" stroke-linecap="round" stroke-linejoin="round"></path>
  <path d="M 62 17 Q 68 29 74 17" fill="none" stroke="#1C1815" stroke-width="6" stroke-linecap="round" stroke-linejoin="round"></path>
  <circle cx="38" cy="14" r="3" fill="#1C1815"></circle>
  <path d="M140.02 78L95.19 78L95.19 73.38L103.08 72.88Q103.08 71.12 103.08 69.35L103.08 69.35Q103.17 65.07 103.17 60.79L103.17 60.79L103.17 39.21Q103.17 34.85 103.08 30.56L103.08 30.56Q103.08 28.80 103.08 27.12L103.08 27.12L95.19 26.62L95.19 22L121.81 22L121.81 26.62L113.24 27.12Q113.16 28.88 113.16 30.56L113.16 30.56Q113.16 34.93 113.16 39.21L113.16 39.21L113.16 60.96Q113.16 65.15 113.16 69.44L113.16 69.44Q113.16 71.20 113.24 73.05L113.24 73.05L132.72 73.05L135.24 61.21L140.78 61.21L140.02 78ZM168.65 78L147.08 78L147.08 73.72L153.37 73.21Q153.37 72.79 153.37 72.37L153.37 72.37Q153.37 69.27 153.42 65.99Q153.46 62.72 153.46 59.95L153.46 59.95L153.46 55.58Q153.46 52.48 153.42 49.92Q153.37 47.36 153.29 44.67L153.29 44.67L146.66 44.33L146.66 40.47L160.17 36.02L162.61 36.44L162.52 47.02L162.52 59.95Q162.52 62.72 162.52 65.99Q162.52 69.27 162.61 72.37L162.61 72.37Q162.61 72.79 162.61 73.21L162.61 73.21L168.65 73.72L168.65 78ZM157.74 28.21L157.74 28.21Q155.22 28.21 153.46 26.49Q151.69 24.77 151.69 22.34L151.69 22.34Q151.69 19.73 153.46 18.10Q155.22 16.46 157.74 16.46L157.74 16.46Q160.34 16.46 162.06 18.10Q163.78 19.73 163.78 22.34L163.78 22.34Q163.78 24.77 162.06 26.49Q160.34 28.21 157.74 28.21ZM188.97 78.67L174.78 78L174.78 73.97L181.08 72.79Q181.08 70.70 181.08 68.47Q181.08 66.25 181.12 64.06Q181.16 61.88 181.16 59.95L181.16 59.95L181.16 24.43L174.19 23.18L174.19 19.57L187.80 16.54L190.23 16.88L190.06 27.79L189.81 44.16L190.15 44.16Q191.83 41.39 193.76 39.51Q195.69 37.62 198.08 36.57Q200.47 35.52 203.66 35.52L203.66 35.52Q208.37 35.52 212.19 37.99Q216.01 40.47 218.23 45.30Q220.46 50.13 220.46 57.09L220.46 57.09Q220.46 63.90 218.15 68.85Q215.84 73.80 211.85 76.45Q207.86 79.09 202.91 79.09L202.91 79.09Q199.80 79.09 197.49 78.13Q195.18 77.16 193.38 75.23Q191.57 73.30 189.98 70.53L189.98 70.53L189.98 70.53L188.97 78.67ZM190.15 46.68L190.15 68.34Q191.83 70.02 193.42 71.12L193.42 71.12Q196.44 73.21 199.97 73.21L199.97 73.21Q203.08 73.21 205.51 71.54Q207.95 69.86 209.37 66.37Q210.80 62.89 210.80 57.51L210.80 57.51Q210.80 49.45 207.82 45.55Q204.84 41.65 200.22 41.65L200.22 41.65Q197.96 41.65 195.90 42.57Q193.84 43.49 191.74 45.26L191.74 45.26Q190.99 45.93 190.15 46.68L190.15 46.68ZM248.50 79.09L248.50 79.09Q242.12 79.09 237.50 76.53Q232.88 73.97 230.40 69.18Q227.93 64.40 227.93 57.85L227.93 57.85Q227.93 51.22 230.49 46.18Q233.05 41.14 237.63 38.33Q242.20 35.52 248.08 35.52L248.08 35.52Q253.37 35.52 257.23 37.57Q261.09 39.63 263.23 43.37Q265.37 47.10 265.37 52.31L265.37 52.31Q265.37 53.90 265.21 55.37Q265.04 56.84 264.79 57.93L264.79 57.93L237.33 57.93Q237.50 62.38 239.01 65.57L239.01 65.57Q240.69 69.10 243.75 70.99Q246.82 72.88 250.93 72.88L250.93 72.88Q255.13 72.88 257.99 71.33Q260.84 69.77 263.11 67.17L263.11 67.17L265.88 69.52Q264.11 72.29 261.81 74.47Q259.50 76.66 256.26 77.87Q253.03 79.09 248.50 79.09ZM237.42 53.82L237.42 53.82L254.04 53.82Q255.72 53.15 256.26 52.06Q256.81 50.97 256.81 49.37L256.81 49.37Q256.81 46.26 255.76 44.16Q254.71 42.07 252.74 41.02Q250.76 39.97 248.08 39.97L248.08 39.97Q245.06 39.97 242.62 41.69Q240.19 43.41 238.76 47.10L238.76 47.10Q237.67 49.79 237.42 53.82ZM293.42 78L271.25 78L271.25 73.72L277.72 73.21Q277.72 72.54 277.72 71.96L277.72 71.96Q277.72 68.93 277.76 65.91Q277.80 62.89 277.80 59.95L277.80 59.95L277.80 24.43L270.83 23.18L270.83 19.57L284.52 16.54L286.95 16.88L286.78 27.79L286.78 59.95Q286.78 62.89 286.82 65.91Q286.87 68.93 286.87 71.96L286.87 71.96Q286.87 72.54 286.87 73.21L286.87 73.21L293.42 73.72L293.42 78ZM321.37 78L299.21 78L299.21 73.72L305.67 73.21Q305.67 72.54 305.67 71.96L305.67 71.96Q305.67 68.93 305.72 65.91Q305.76 62.89 305.76 59.95L305.76 59.95L305.76 24.43L298.79 23.18L298.79 19.57L312.47 16.54L314.91 16.88L314.74 27.79L314.74 59.95Q314.74 62.89 314.78 65.91Q314.82 68.93 314.82 71.96L314.82 71.96Q314.82 72.54 314.82 73.21L314.82 73.21L321.37 73.72L321.37 78ZM338.67 79.26L338.67 79.26Q333.88 79.26 330.52 76.40Q327.17 73.55 327.17 68.26L327.17 68.26Q327.17 65.15 328.51 62.76Q329.85 60.37 332.96 58.48Q336.07 56.59 341.44 55.08L341.44 55.08Q343.79 54.41 346.14 53.82Q348.49 53.23 350.84 52.56L350.84 52.56Q351.35 52.39 351.93 52.22L351.93 52.22L351.93 49.87Q351.93 46.10 351.05 43.91Q350.17 41.73 348.28 40.81Q346.39 39.88 343.45 39.88L343.45 39.88Q341.44 39.88 339.51 40.30L339.51 40.30Q339.17 40.30 338.84 40.39L338.84 40.39L338.08 45.26Q337.75 48.19 336.40 49.54Q335.06 50.88 332.96 50.88L332.96 50.88Q330.86 50.88 329.73 49.79Q328.59 48.70 328.26 47.10L328.26 47.10Q329.27 41.81 333.97 38.67Q338.67 35.52 346.06 35.52L346.06 35.52Q350.76 35.52 354.07 36.99Q357.39 38.46 359.15 41.69Q360.92 44.92 360.92 50.29L360.92 50.29L360.92 68.93Q360.92 71.20 361.80 72.21Q362.68 73.21 364.19 73.21L364.19 73.21Q365.20 73.21 366.00 72.88Q366.79 72.54 367.47 72.04L367.47 72.04L368.89 74.98Q367.55 76.82 365.58 77.92Q363.60 79.01 360.83 79.01L360.83 79.01Q356.97 79.01 354.70 76.66L354.70 76.66Q352.86 74.81 352.35 71.45L352.35 71.45L351.43 71.45Q349.84 73.63 348.11 75.40Q346.39 77.16 344.17 78.21Q341.94 79.26 338.67 79.26ZM351.93 68.51L351.93 55.84Q350.76 56.25 349.67 56.59L349.67 56.59Q346.73 57.51 343.79 58.44L343.79 58.44Q340.68 59.36 339.00 60.62Q337.33 61.88 336.70 63.35Q336.07 64.82 336.07 66.50L336.07 66.50Q336.07 69.60 337.91 71.28Q339.76 72.96 342.87 72.96L342.87 72.96Q344.80 72.96 346.39 72.25Q347.99 71.54 349.84 70.19L349.84 70.19Q350.76 69.44 351.93 68.51L351.93 68.51Z" fill="#1C1815"></path>
</svg>