<svg xmlns="http://www.w3.org/2000/svg" viewBox="0 0 385 95" role="img" aria-label="Libella">
  <line x1="48" y1="14" x2="48" y2="78" fill="none" stroke="#1C1815" stroke-width="6" stroke-linecap="round" stroke-linejoin="round"></line>
  <line x1="26" y1="86" x2="70" y2="86" fill="none" stroke="#1C1815" stroke-width="6" stroke-linecap="round" stroke-linejoin="round"></line>
  <line x1="18" y1="13" x2="78" y2="17" fill="none" stroke="#1C1815" stroke-width="6" stroke-linecap="round" stroke-linejoin="round"></line>
  <path d="M 11 13 Q 18 27 25 13" fill="none" stroke="#1C1815" stroke-width="6" stroke-linecap="round" stroke-linejoin="round"></path>
  <path d="M 72 17 Q 78 29 84 17" fill="none" stroke="#1C1815" stroke-width="6" stroke-linecap="round" stroke-linejoin="round"></path>
  <circle cx="48" cy="14" r="3" fill="#1C1815"></circle>
  <path d="M150.02 78L105.19 78L105.19 73.38L113.08 72.88Q113.08 71.12 113.08 69.35L113.08 69.35Q113.17 65.07 113.17 60.79L113.17 60.79L113.17 39.21Q113.17 34.85 113.08 30.56L113.08 30.56Q113.08 28.80 113.08 27.12L113.08 27.12L105.19 26.62L105.19 22L131.81 22L131.81 26.62L123.24 27.12Q123.16 28.88 123.16 30.56L123.16 30.56Q123.16 34.93 123.16 39.21L123.16 39.21L123.16 60.96Q123.16 65.15 123.16 69.44L123.16 69.44Q123.16 71.20 123.24 73.05L123.24 73.05L142.72 73.05L145.24 61.21L150.78 61.21L150.02 78ZM178.65 78L157.08 78L157.08 73.72L163.37 73.21Q163.37 72.79 163.37 72.37L163.37 72.37Q163.37 69.27 163.42 65.99Q163.46 62.72 163.46 59.95L163.46 59.95L163.46 55.58Q163.46 52.48 163.42 49.92Q163.37 47.36 163.29 44.67L163.29 44.67L156.66 44.33L156.66 40.47L170.17 36.02L172.61 36.44L172.52 47.02L172.52 59.95Q172.52 62.72 172.52 65.99Q172.52 69.27 172.61 72.37L172.61 72.37Q172.61 72.79 172.61 73.21L172.61 73.21L178.65 73.72L178.65 78ZM167.74 28.21L167.74 28.21Q165.22 28.21 163.46 26.49Q161.69 24.77 161.69 22.34L161.69 22.34Q161.69 19.73 163.46 18.10Q165.22 16.46 167.74 16.46L167.74 16.46Q170.34 16.46 172.06 18.10Q173.78 19.73 173.78 22.34L173.78 22.34Q173.78 24.77 172.06 26.49Q170.34 28.21 167.74 28.21ZM198.97 78.67L184.78 78L184.78 73.97L191.08 72.79Q191.08 70.70 191.08 68.47Q191.08 66.25 191.12 64.06Q191.16 61.88 191.16 59.95L191.16 59.95L191.16 24.43L184.19 23.18L184.19 19.57L197.80 16.54L200.23 16.88L200.06 27.79L199.81 44.16L200.15 44.16Q201.83 41.39 203.76 39.51Q205.69 37.62 208.08 36.57Q210.47 35.52 213.66 35.52L213.66 35.52Q218.37 35.52 222.19 37.99Q226.01 40.47 228.23 45.30Q230.46 50.13 230.46 57.09L230.46 57.09Q230.46 63.90 228.15 68.85Q225.84 73.80 221.85 76.45Q217.86 79.09 212.91 79.09L212.91 79.09Q209.80 79.09 207.49 78.13Q205.18 77.16 203.38 75.23Q201.57 73.30 199.98 70.53L199.98 70.53L199.98 70.53L198.97 78.67ZM200.15 46.68L200.15 68.34Q201.83 70.02 203.42 71.12L203.42 71.12Q206.44 73.21 209.97 73.21L209.97 73.21Q213.08 73.21 215.51 71.54Q217.95 69.86 219.37 66.37Q220.80 62.89 220.80 57.51L220.80 57.51Q220.80 49.45 217.82 45.55Q214.84 41.65 210.22 41.65L210.22 41.65Q207.96 41.65 205.90 42.57Q203.84 43.49 201.74 45.26L201.74 45.26Q200.99 45.93 200.15 46.68L200.15 46.68ZM258.50 79.09L258.50 79.09Q252.12 79.09 247.50 76.53Q242.88 73.97 240.40 69.18Q237.93 64.40 237.93 57.85L237.93 57.85Q237.93 51.22 240.49 46.18Q243.05 41.14 247.63 38.33Q252.20 35.52 258.08 35.52L258.08 35.52Q263.37 35.52 267.23 37.57Q271.09 39.63 273.23 43.37Q275.37 47.10 275.37 52.31L275.37 52.31Q275.37 53.90 275.21 55.37Q275.04 56.84 274.79 57.93L274.79 57.93L247.33 57.93Q247.50 62.38 249.01 65.57L249.01 65.57Q250.69 69.10 253.75 70.99Q256.82 72.88 260.93 72.88L260.93 72.88Q265.13 72.88 267.99 71.33Q270.84 69.77 273.11 67.17L273.11 67.17L275.88 69.52Q274.11 72.29 271.81 74.47Q269.50 76.66 266.26 77.87Q263.03 79.09 258.50 79.09ZM247.42 53.82L247.42 53.82L264.04 53.82Q265.72 53.15 266.26 52.06Q266.81 50.97 266.81 49.37L266.81 49.37Q266.81 46.26 265.76 44.16Q264.71 42.07 262.74 41.02Q260.76 39.97 258.08 39.97L258.08 39.97Q255.06 39.97 252.62 41.69Q250.19 43.41 248.76 47.10L248.76 47.10Q247.67 49.79 247.42 53.82ZM303.42 78L281.25 78L281.25 73.72L287.72 73.21Q287.72 72.54 287.72 71.96L287.72 71.96Q287.72 68.93 287.76 65.91Q287.80 62.89 287.80 59.95L287.80 59.95L287.80 24.43L280.83 23.18L280.83 19.57L294.52 16.54L296.95 16.88L296.78 27.79L296.78 59.95Q296.78 62.89 296.82 65.91Q296.87 68.93 296.87 71.96L296.87 71.96Q296.87 72.54 296.87 73.21L296.87 73.21L303.42 73.72L303.42 78ZM331.37 78L309.21 78L309.21 73.72L315.67 73.21Q315.67 72.54 315.67 71.96L315.67 71.96Q315.67 68.93 315.72 65.91Q315.76 62.89 315.76 59.95L315.76 59.95L315.76 24.43L308.79 23.18L308.79 19.57L322.47 16.54L324.91 16.88L324.74 27.79L324.74 59.95Q324.74 62.89 324.78 65.91Q324.82 68.93 324.82 71.96L324.82 71.96Q324.82 72.54 324.82 73.21L324.82 73.21L331.37 73.72L331.37 78ZM348.67 79.26L348.67 79.26Q343.88 79.26 340.52 76.40Q337.17 73.55 337.17 68.26L337.17 68.26Q337.17 65.15 338.51 62.76Q339.85 60.37 342.96 58.48Q346.07 56.59 351.44 55.08L351.44 55.08Q353.79 54.41 356.14 53.82Q358.49 53.23 360.84 52.56L360.84 52.56Q361.35 52.39 361.93 52.22L361.93 52.22L361.93 49.87Q361.93 46.10 361.05 43.91Q360.17 41.73 358.28 40.81Q356.39 39.88 353.45 39.88L353.45 39.88Q351.44 39.88 349.51 40.30L349.51 40.30Q349.17 40.30 348.84 40.39L348.84 40.39L348.08 45.26Q347.75 48.19 346.40 49.54Q345.06 50.88 342.96 50.88L342.96 50.88Q340.86 50.88 339.73 49.79Q338.59 48.70 338.26 47.10L338.26 47.10Q339.27 41.81 343.97 38.67Q348.67 35.52 356.06 35.52L356.06 35.52Q360.76 35.52 364.07 36.99Q367.39 38.46 369.15 41.69Q370.92 44.92 370.92 50.29L370.92 50.29L370.92 68.93Q370.92 71.20 371.80 72.21Q372.68 73.21 374.19 73.21L374.19 73.21Q375.20 73.21 376.00 72.88Q376.79 72.54 377.47 72.04L377.47 72.04L378.89 74.98Q377.55 76.82 375.58 77.92Q373.60 79.01 370.83 79.01L370.83 79.01Q366.97 79.01 364.70 76.66L364.70 76.66Q362.86 74.81 362.35 71.45L362.35 71.45L361.43 71.45Q359.84 73.63 358.11 75.40Q356.39 77.16 354.17 78.21Q351.94 79.26 348.67 79.26ZM361.93 68.51L361.93 55.84Q360.76 56.25 359.67 56.59L359.67 56.59Q356.73 57.51 353.79 58.44L353.79 58.44Q350.68 59.36 349.00 60.62Q347.33 61.88 346.70 63.35Q346.07 64.82 346.07 66.50L346.07 66.50Q346.07 69.60 347.91 71.28Q349.76 72.96 352.87 72.96L352.87 72.96Q354.80 72.96 356.39 72.25Q357.99 71.54 359.84 70.19L359.84 70.19Q360.76 69.44 361.93 68.51L361.93 68.51Z" fill="#1C1815"></path>
</svg>