<svg xmlns="http://www.w3.org/2000/svg" viewBox="0 0 356 95" width="356" height="95" role="img" aria-label="Perpenda">
  <path d="M39.900 18.684C48.824 18.684 53.608 23.100 53.608 31.564C53.608 41.132 47.812 47.848 36.036 47.848L30.608 47.848L30.700 47.480L36.128 18.684ZM19.568 18.132L27.940 19.144C26.652 27.056 25.272 34.968 23.800 42.880L18.372 71.400L10.552 72.320L9.724 76L34.656 76L35.392 72.320L26.560 71.216C27.572 64.868 28.676 58.428 29.872 52.080L36.220 52.080C52.872 52.080 62.164 42.972 62.164 30.552C62.164 20.984 55.264 14.360 41.280 14.360L20.304 14.360Z" fill="#7D2A1A"></path>
  <line x1="2" y1="50.24" x2="32" y2="50.24" stroke="#7D2A1A" stroke-width="3.6" stroke-linecap="round"></line>
  <path d="M88.588 43.144C92.362 43.144 94.952 45.660 94.952 50.766C94.952 53.430 94.064 54.984 90.216 54.984L80.226 54.984C80.818 46.178 84.740 43.144 88.588 43.144ZM88.958 77.036C96.580 77.036 100.650 73.854 103.758 68.452L101.760 66.824C99.096 69.858 95.988 71.190 91.770 71.190C85.184 71.190 80.522 66.898 80.152 58.462L102.944 58.462C103.240 57.352 103.388 56.020 103.388 54.392C103.388 45.438 97.394 39.518 88.588 39.518C78.746 39.518 70.902 46.918 70.902 58.684C70.902 70.376 78.154 77.036 88.958 77.036ZM108.864 76L128.696 76L128.696 72.966L122.628 71.782C122.554 68.156 122.554 63.568 122.554 60.460L122.554 55.280C123.590 51.432 125.514 48.176 128.178 45.882L128.844 46.622C130.472 48.398 132.026 49.212 133.950 49.212C136.910 49.212 138.612 47.214 138.686 43.514C137.946 40.924 135.578 39.518 132.914 39.518C129.066 39.518 124.848 42.922 122.554 49.064L121.814 40.258L120.630 39.518L108.272 44.254L108.272 46.992L113.526 47.658C113.674 50.618 113.748 52.468 113.748 56.538L113.748 60.460C113.748 63.642 113.748 68.378 113.674 72.004L108.864 72.966ZM141.424 93.316L161.256 93.316L161.256 90.282L155.410 89.172C155.336 84.880 155.262 80.884 155.262 77.110L155.262 72.596C158.074 75.778 161.256 77.036 164.882 77.036C173.392 77.036 180.422 69.784 180.422 58.166C180.422 46.252 174.058 39.518 166.066 39.518C162.070 39.518 158.370 41.220 155.040 44.772L154.670 40.258L153.486 39.518L141.202 44.254L141.202 46.992L146.456 47.658C146.604 50.618 146.678 52.468 146.678 56.538L146.678 77.184C146.678 80.958 146.604 85.028 146.530 89.320L141.424 90.282ZM162.662 44.772C167.546 44.772 171.024 49.434 171.024 58.536C171.024 67.712 167.102 71.856 162.144 71.856C159.702 71.856 157.630 70.894 155.484 68.896L155.484 48.028C158.000 46.030 160.368 44.772 162.662 44.772ZM203.584 43.144C207.358 43.144 209.948 45.660 209.948 50.766C209.948 53.430 209.060 54.984 205.212 54.984L195.222 54.984C195.814 46.178 199.736 43.144 203.584 43.144ZM203.954 77.036C211.576 77.036 215.646 73.854 218.754 68.452L216.756 66.824C214.092 69.858 210.984 71.190 206.766 71.190C200.180 71.190 195.518 66.898 195.148 58.462L217.940 58.462C218.236 57.352 218.384 56.020 218.384 54.392C218.384 45.438 212.390 39.518 203.584 39.518C193.742 39.518 185.898 46.918 185.898 58.684C185.898 70.376 193.150 77.036 203.954 77.036ZM223.786 76L242.064 76L242.064 72.966L237.624 72.078C237.550 68.378 237.550 63.642 237.550 60.460L237.550 49.434C240.510 46.918 243.248 45.734 245.912 45.734C249.612 45.734 251.092 47.658 251.092 53.504L251.092 60.460C251.092 63.790 251.092 68.378 251.018 72.004L246.282 72.966L246.282 76L264.560 76L264.560 72.966L259.972 72.078C259.898 68.378 259.898 63.790 259.898 60.460L259.898 52.764C259.898 43.588 256.272 39.518 249.908 39.518C245.468 39.518 241.102 41.664 237.328 45.956L236.810 40.258L235.626 39.518L223.268 44.254L223.268 46.992L228.522 47.658C228.670 50.618 228.744 52.468 228.744 56.538L228.744 60.460C228.744 63.642 228.744 68.378 228.670 72.004L223.786 72.966ZM278.620 58.462C278.620 48.990 282.764 44.698 287.796 44.698C289.942 44.698 291.940 45.512 294.308 47.584L294.308 68.748C292.310 70.746 290.312 71.782 287.722 71.782C282.468 71.782 278.620 67.416 278.620 58.462ZM295.122 76.814L307.998 76L307.998 72.966L303.114 72.152L303.114 32.858L303.410 22.350L302.300 21.684L288.832 25.014L288.832 27.900L294.604 28.640L294.604 43.884C291.866 40.850 288.980 39.518 285.280 39.518C276.548 39.518 269.222 46.918 269.222 58.610C269.222 70.006 275.438 77.036 284.170 77.036C288.610 77.036 291.866 75.334 294.604 72.078ZM340.114 76.888C343.592 76.888 345.960 75.630 347.736 72.226L346.034 70.746C345.220 71.856 344.480 72.374 343.444 72.374C342.038 72.374 341.224 71.412 341.224 69.044L341.224 52.912C341.224 43.292 337.524 39.518 328.940 39.518C319.912 39.518 314.214 43.366 313.326 49.212C313.696 51.432 315.176 52.616 317.470 52.616C319.912 52.616 321.614 50.988 322.058 47.436L322.946 43.440C324.130 43.218 325.092 43.144 326.054 43.144C330.864 43.144 332.566 44.994 332.566 51.876L332.566 54.170C330.198 54.836 327.830 55.502 325.462 56.168C314.658 59.202 312.216 62.976 312.216 67.712C312.216 73.780 316.508 77.036 322.058 77.036C326.720 77.036 329.162 75.112 332.862 71.412C333.676 74.816 336.192 76.888 340.114 76.888ZM320.874 66.380C320.874 63.420 321.984 60.534 327.682 58.684C329.236 58.240 330.864 57.648 332.566 57.130L332.566 68.896C329.458 71.042 328.052 71.634 326.128 71.634C323.094 71.634 320.874 70.080 320.874 66.380Z" fill="#1C1815"></path>
</svg>
