<svg xmlns="http://www.w3.org/2000/svg" viewBox="0 0 64 64" width="64" height="64" role="img" aria-label="Perpenda mark">
  <path d="M30.850 14.866C36.476 14.866 39.492 17.650 39.492 22.986C39.492 29.018 35.838 33.252 28.414 33.252L24.992 33.252L25.050 33.020L28.472 14.866ZM18.032 14.518L23.310 15.156C22.498 20.144 21.628 25.132 20.700 30.120L17.278 48.100L12.348 48.680L11.826 51L27.544 51L28.008 48.680L22.440 47.984C23.078 43.982 23.774 39.922 24.528 35.920L28.530 35.920C39.028 35.920 44.886 30.178 44.886 22.348C44.886 16.316 40.536 12.140 31.720 12.140L18.496 12.140Z" fill="#D6816A"></path>
  <line x1="3" y1="40" x2="28.53" y2="40" stroke="#D6816A" stroke-width="2.6" stroke-linecap="round"></line>
</svg>